<?xml version="1.0" encoding="utf-8"?>
<!-- Generator: Adobe Illustrator 25.2.1, SVG Export Plug-In . SVG Version: 6.00 Build 0)  -->
<svg version="1.1" id="Layer_1" xmlns="http://www.w3.org/2000/svg" xmlns:xlink="http://www.w3.org/1999/xlink" x="0px" y="0px"
	 width="448px" height="512px" viewBox="0 0 448 512" style="enable-background:new 0 0 448 512;" xml:space="preserve">
<style type="text/css">
	.st0{fill:#FFFFFF;}
</style>
<path class="st0" d="M224,72.4c59.8,0,66.9,0.2,90.5,1.3c60.7,2.8,89.1,31.6,91.8,91.8c1.1,23.6,1.3,30.7,1.3,90.5
	c0,59.8-0.2,66.9-1.3,90.5c-2.8,60.2-31.1,89.1-91.8,91.8c-23.6,1.1-30.7,1.3-90.5,1.3c-59.8,0-66.9-0.2-90.5-1.3
	c-60.9-2.8-89.1-31.7-91.8-91.8c-1.1-23.6-1.3-30.7-1.3-90.5c0-59.8,0.2-66.9,1.3-90.5c2.8-60.2,31.1-89.1,91.8-91.8
	C157.1,72.6,164.2,72.4,224,72.4z M224,32c-60.8,0-68.5,0.3-92.3,1.3C50.3,37.1,5.1,82.2,1.4,163.6C0.3,187.5,0,195.2,0,256
	s0.3,68.5,1.3,92.4c3.7,81.3,48.9,126.6,130.3,130.3c23.9,1.1,31.5,1.3,92.4,1.3s68.5-0.3,92.4-1.3c81.3-3.7,126.6-48.9,130.3-130.3
	c1.1-23.9,1.4-31.5,1.4-92.4s-0.3-68.5-1.3-92.3C443,82.4,397.8,37.1,316.4,33.4C292.5,32.3,284.8,32,224,32z M224,141
	c-63.5,0-115,51.5-115,115s51.5,115,115,115s115-51.5,115-115C339,192.5,287.5,141,224,141z M224,330.7c-41.2,0-74.7-33.4-74.7-74.7
	c0-41.2,33.4-74.7,74.7-74.7s74.7,33.4,74.7,74.7C298.7,297.3,265.2,330.7,224,330.7z M343.6,109.6c-14.9,0-26.9,12-26.9,26.9
	c0,14.8,12,26.9,26.9,26.9c14.8,0,26.9-12,26.9-26.9C370.4,121.6,358.4,109.6,343.6,109.6z"/>
</svg>
