<?xml version="1.0" encoding="utf-8"?>
<!-- Generator: Adobe Illustrator 22.0.1, SVG Export Plug-In . SVG Version: 6.00 Build 0)  -->
<svg version="1.1"
	 id="Layer_1" xmlns:cc="http://creativecommons.org/ns#" xmlns:dc="http://purl.org/dc/elements/1.1/" xmlns:inkscape="http://www.inkscape.org/namespaces/inkscape" xmlns:rdf="http://www.w3.org/1999/02/22-rdf-syntax-ns#" xmlns:sodipodi="http://sodipodi.sourceforge.net/DTD/sodipodi-0.dtd" xmlns:svg="http://www.w3.org/2000/svg"
	 xmlns="http://www.w3.org/2000/svg" xmlns:xlink="http://www.w3.org/1999/xlink" x="0px" y="0px" width="300px" height="200px"
	 viewBox="0 0 300 200" style="enable-background:new 0 0 300 200;" xml:space="preserve">
<style type="text/css">
	.st0{fill:#FFFFFF;}
</style>
<g>
	<path class="st0" d="M234.4,94.3c-5.2-2.5-16.6-6.8-40.2-11.2c-21.8-4.1-44.3-4-44.3-4s-22.4-0.1-44.2,4
		c-23.6,4.4-35,8.7-40.1,11.2c-2.4,1.2-4,3.6-4,6.3v95.5c0,2.1,1.7,3.9,3.9,3.9H150h84.5c2.1,0,3.9-1.7,3.9-3.9v-95.5
		C238.4,98,236.8,95.5,234.4,94.3z M74.4,197.7h-7.9c-1.4,0-2.5-1.1-2.5-2.5v-34.2c0,0,0,0,0,0c2.9-0.2,5.6,0.9,7.5,2.9
		c1.8,1.8,2.9,4.2,2.9,6.9V197.7z M196.4,186.3c0,2.5-2,4.5-4.5,4.5h-83.8c-2.5,0-4.5-2-4.5-4.5v-80.7c0-9.2,7.5-16.7,16.7-16.7
		h59.4c9.2,0,16.7,7.5,16.7,16.7V186.3z M236.1,195.2c0,1.4-1.1,2.5-2.5,2.5h-7.9v-27c0-2.7,1.1-5.2,2.9-6.9c1.9-1.9,4.6-3,7.5-2.9
		c0,0,0,0,0,0V195.2z"/>
	<path class="st0" d="M169.5,0h-39c-1.1,0-2,0.9-2,2v34.5h1.6v2.7h-1.6v11.2l7.2,7.2h33.8c1.1,0,2-0.9,2-2V2
		C171.5,0.9,170.6,0,169.5,0z M165.9,13.6c0,0.7-0.6,1.2-1.2,1.2h-29.4c-0.7,0-1.2-0.6-1.2-1.2V7.5c0-0.7,0.6-1.2,1.2-1.2h29.4
		c0.7,0,1.2,0.6,1.2,1.2V13.6z"/>
	<polygon class="st0" points="155.5,66.2 155.5,62 144.5,62 144.5,66.2 141.4,66.2 150,74.7 158.6,66.2 	"/>
</g>
</svg>
