<?xml version="1.0" encoding="utf-8"?>
<!-- Generator: Adobe Illustrator 22.0.1, SVG Export Plug-In . SVG Version: 6.00 Build 0)  -->
<svg version="1.1" id="Layer_1" xmlns="http://www.w3.org/2000/svg" xmlns:xlink="http://www.w3.org/1999/xlink" x="0px" y="0px"
	 width="300px" height="135.8px" viewBox="0 0 300 135.8" style="enable-background:new 0 0 300 135.8;" xml:space="preserve">
<style type="text/css">
	.st0{fill:#FFFFFF;}
</style>
<g>
	<path class="st0" d="M118.6,87.5c1.6-7.4,1.6-20,1.6-20c3.8-11.7,1-19.8-2.3-27c-3.3-7.2-13.3-12.7-16.4-13.8c-3.1-1.1-3-2.6-3-2.6
		s-0.8-3.4-1.1-4.1c-0.3-0.8-2.3-2-4.9-3.1c-7.3-3.4-13.8-5.1-13.8-5.1s-6.4-1.8-14.4-2.6c-2.8-0.3-5.2-0.3-5.8,0.2
		c-0.6,0.5-3.1,3-3.1,3s-0.7,1.4-3.9,0.7c-3.3-0.6-14.7-1-21.2,3.5c-6.5,4.5-13.1,10-15.7,22c0,0-6.4,10.9-8.8,18.1
		C3.5,63.9,0.2,72.3,0,85.4c-0.1,13,0.4,17.9,4.9,20.4c4.8,2.1,8-0.9,8.9-1.9s11.6-14.3,15.1-21.4c3.5-7.1,5.2-8.9,7.1-8.4
		c0.6,0.1,1.3,0.3,1.3,0.3l1.4,5.2c1,3.8,3.9,6.8,7.7,8l10,3.2l1.5,0.4L68,93.5c3.8,0.9,7.9-0.2,10.7-3l3.9-3.8c0,0,0.7,0.2,1.3,0.4
		c1.9,0.6,2.5,3,1.8,10.9c-0.6,7.9,1.9,24.8,2.1,26.1s1.5,5.6,6.7,6.1c5.1,0.1,8.1-3.8,14.6-15C115.6,103.9,117,94.9,118.6,87.5z
		 M35.7,57.4c-8.1-2.2-12.8-10.5-10.6-18.6c2.2-8.1,10.5-12.8,18.6-10.6c8.1,2.2,12.8,10.5,10.6,18.6C52.1,54.9,43.8,59.6,35.7,57.4
		z M91.2,47.2c2.3,0.6,3.7,3,3,5.3c-0.6,2.3-3,3.6-5.3,3c-2.3-0.6-3.6-3-3-5.3C86.5,47.9,88.9,46.5,91.2,47.2z M71.1,39.5
		c1.8,0.5,2.9,2.4,2.4,4.2c-0.5,1.8-2.4,2.9-4.2,2.4s-2.9-2.4-2.4-4.2C67.4,40.1,69.3,39,71.1,39.5z M70.3,78.7
		c-0.1,0.5-0.7,0.8-1.2,0.7l-4.2-1.2c-0.5-0.1-1.1,0.2-1.2,0.7l-1.2,4.2c-0.1,0.5-0.7,0.8-1.2,0.7l-4.2-1.1
		c-0.5-0.1-0.9-0.7-0.7-1.2l1.2-4.2c0.1-0.5-0.2-1.1-0.7-1.2l-4.2-1.2c-0.5-0.1-0.9-0.7-0.7-1.2l1.2-4.2c0.1-0.5,0.7-0.8,1.2-0.7
		l4.2,1.2c0.5,0.1,1.1-0.2,1.2-0.7l1.2-4.2c0.1-0.5,0.7-0.9,1.2-0.7l4.2,1.1c0.5,0.1,0.9,0.7,0.7,1.2l-1.2,4.2
		c-0.1,0.5,0.2,1.1,0.7,1.2l4.2,1.2c0.5,0.1,0.8,0.7,0.7,1.2L70.3,78.7z M75.2,62.4c-3.2-0.9-5.1-4.2-4.2-7.4
		c0.9-3.2,4.2-5.1,7.4-4.2c3.2,0.9,5.1,4.2,4.2,7.4C81.7,61.4,78.4,63.3,75.2,62.4z M82.5,75.3c-3.2-0.9-5.1-4.2-4.2-7.4
		c0.9-3.2,4.2-5.1,7.4-4.2c3.2,0.9,5.1,4.2,4.2,7.4C89.1,74.3,85.8,76.2,82.5,75.3z M95.2,66.6c-2.3-0.6-3.7-3-3-5.3s3-3.6,5.3-3
		c2.3,0.6,3.6,3,3,5.3C99.9,65.9,97.5,67.2,95.2,66.6z M100,49.1c-2.3-0.6-3.7-3-3-5.3c0.6-2.3,3-3.7,5.3-3c2.3,0.6,3.6,3,3,5.3
		C104.7,48.4,102.3,49.8,100,49.1z M106.4,60.3c-2.3-0.6-3.7-3-3-5.3c0.6-2.3,3-3.7,5.3-3c2.3,0.6,3.6,3,3,5.3
		C111,59.5,108.6,60.9,106.4,60.3z"/>
	<polygon class="st0" points="43.1,32.8 35,33.4 29.7,39.5 30.4,47.6 36.4,52.8 44.5,52.2 49.7,46.2 49.1,38.1 	"/>
</g>
<path id="Combined-Shape_1_" class="st0" d="M274.8,15c-8.7-11.3-18.7-12.6-18.7-12.6s1.7-3.1-5.7-2.3c-7.3,0.8-22.8,6-22.8,6
	s-2.2-2.5-4.3-3c-1.8-0.4-14.7,0.9-25.5,5.8c-10.8,4.9-20.1,14.3-20.7,16c-0.9,1.7-0.4,5.2-0.4,5.2S163,38.6,157.6,44
	c-5.2,5.2-1.8,5.8-1.8,5.8s-4.8,6.5-2.1,22.4c3.5,20.2,19.6,47.1,27.8,55.7s13.6-0.8,13.5-7c0.2-6.1-5.8-33.4-5.8-33.4s0,0,9.9-3.2
	c9.9-3.2,12.4,2.5,12.4,2.5s21.6,29.7,31,40.5s20.6,5.7,18-8.5c-2.3-14.1-11.6-49.6-11.6-49.6s-2.8-5.5,6-11.1l8.8-5.6
	c0,0,17.3,22,22.2,25.7c4.9,3.7,15.5,5.6,14-6C298.8,60,287.3,31.4,274.8,15L274.8,15z M182,77.9c-7.5,3.5-16.7,0.2-20.3-7.3
	c-3.5-7.5-0.2-16.7,7.3-20.3c7.5-3.5,16.7-0.2,20.3,7.3C193,65.2,189.7,74.4,182,77.9L182,77.9z M214.2,43.1
	c3.1-1.4,6.7,0.1,7.9,3.1c1.4,3.1-0.1,6.7-3.1,7.9c-3.1,1.4-6.7-0.1-7.9-3.1C209.6,47.9,211.2,44.3,214.2,43.1L214.2,43.1z
	 M236,89.6c-8.2,3.9-17.9,0.4-21.8-7.8c-3.9-8.2-0.4-17.9,7.8-21.8c8.2-3.9,17.9-0.4,21.8,7.8C247.6,75.9,244.1,85.7,236,89.6
	L236,89.6z M250.8,9.3c2-1,4.5-0.1,5.8,2.1c1,2,0.1,4.5-2.1,5.8s-4.5,0.1-5.8-2.1S248.7,10.5,250.8,9.3L250.8,9.3z M247.2,19.6
	c2-1,4.5-0.1,5.8,2.1c1,2,0.1,4.5-2.1,5.8c-2,1-4.5,0.1-5.8-2.1S245.1,20.5,247.2,19.6L247.2,19.6z M243.7,41.2
	c-3.1,1.4-6.6,0.2-8-2.9c-1.4-3.1-0.2-6.6,2.9-8c3.1-1.4,6.6-0.2,8,2.9C248,36.2,246.7,39.7,243.7,41.2L243.7,41.2z M257.6,46.5
	c-3.1,1.4-6.6,0.2-8-2.9c-1.4-3.1-0.2-6.6,2.9-8c3.1-1.4,6.6-0.2,8,2.9C261.9,41.5,260.6,45.3,257.6,46.5L257.6,46.5z M261.1,31.1
	c-2,1-4.5,0.1-5.8-2.1s-0.1-4.5,2.1-5.8c2.1-1.2,4.5-0.1,5.8,2.1C264.1,27.3,263.2,30.1,261.1,31.1L261.1,31.1z M264.8,20.8
	c-2,1-4.5,0.1-5.8-2.1c-1.2-2.1-0.1-4.5,2.1-5.8s4.5-0.1,5.8,2.1C267.7,17.3,266.8,19.8,264.8,20.8z M184.3,57.8
	c-0.3-0.7-1.3-1-2-0.7l-3.7,1.8c-0.7,0.3-1.7,0-2-0.7l-1.8-3.7c-0.3-0.7-1.3-1-2-0.7l-3.4,1.6c-0.7,0.3-1,1.3-0.7,2l1.8,3.7
	c0.3,0.7,0,1.7-0.7,2l-3.7,1.8c-0.7,0.3-1,1.3-0.7,2l1.6,3.4c0.3,0.7,1.3,1,2,0.7l3.7-1.8c0.7-0.3,1.7,0,2,0.7l1.8,3.7
	c0.3,0.7,1.3,1,2,0.7l3.4-1.6c0.7-0.3,1-1.3,0.7-2l-1.8-3.7c-0.3-0.7,0-1.7,0.7-2l3.7-1.8c0.7-0.3,1-1.3,0.7-2L184.3,57.8z
	 M233.4,64.4l-8.7,0l-6.1,6l0,8.7l6,6.1l8.7,0l6.1-6l0-8.7L233.4,64.4z"/>
</svg>
